# generated by hand
# faces are in counter-clockwise order
# tested in meshlab

mtllib box.mtl

v  1  1  1
v  1  1 -1
v  1 -1  1
v  1 -1 -1
v -1  1  1
v -1  1 -1
v -1 -1  1
v -1 -1 -1

vn  0  0  1
vn  1  0  0
vn -1  0  0
vn  0  1  0 
vn  0 -1  0
vn  0  0 -1

vt 1 1
vt 0 1
vt 0 0
vt 1 0

usemtl ID01

#front
f 1/1/1 5/2/1 7/3/1
f 7/3/1 3/4/1 1/1/1

#right
f 2/1/2 1/2/2 3/3/2
f 3/3/2 4/4/2 2/1/2

#left
f 5/1/3 6/2/3 8/3/3
f 8/3/3 7/4/3 5/1/3

#top
f 2/1/4 6/2/4 5/3/4
f 5/3/4 1/4/4 2/1/4

#bottom
f 3/1/5 7/2/5 8/3/5
f 8/3/5 4/4/5 3/1/5

#back
f 6/1/6 2/2/6 4/3/6
f 4/3/6 8/4/6 6/1/6